# xmcd CD database file
#
# Track frame offsets:
#	150
#	6967
#	13640
#	20420
#	27147
#	33940
#	40817
#	47502
#	54442
#	61192
#	68022
#	74780
#	81512
#	88257
#	95040
#	101980
#	108805
#	115597
#	122300
#	129192
#	135972
#	142770
#	149647
#	156362
#	163127
#
# Disc length: 2262 seconds
#
# Revision: 0
# Processed by: cddbd v1.5.2PL0 Copyright (c) Steve Scherf et al.
# Submitted via: CDex 1.70beta2
#
DISCID=4e08d419
DTITLE=Miles Davis - This Is More Miles!
DYEAR=1993
DGENRE=Jazz
TTITLE0=All Blues
TTITLE1=Someday My Prince Will Come
TTITLE2=Bye Bye Blackbird
TTITLE3=Seven Steps To Heaven
TTITLE4=Autumn Leaves
TTITLE5=Milestones
TTITLE6=Summertime
TTITLE7=Sketches Of Spain
TTITLE8=E.S.P.
TTITLE9=Sorcerer
TTITLE10=Pinocchio
TTITLE11=Sweet Pea
TTITLE12=Stuff
TTITLE13=Bitches Brew
TTITLE14=Sanctuary
TTITLE15=Right Off
TTITLE16=Zimbabwe
TTITLE17=Speak
TTITLE18=What It Is
TTITLE19=Great Expectations
TTITLE20=Guinnevere
TTITLE21=Maiysha
TTITLE22=Shout
TTITLE23=Human Nature
TTITLE24=Don't Stop Me Now
EXTD=YEAR: 1993
EXTT0=
EXTT1=
EXTT2=
EXTT3=
EXTT4=
EXTT5=
EXTT6=
EXTT7=
EXTT8=
EXTT9=
EXTT10=
EXTT11=
EXTT12=
EXTT13=
EXTT14=
EXTT15=
EXTT16=
EXTT17=
EXTT18=
EXTT19=
EXTT20=
EXTT21=
EXTT22=
EXTT23=
EXTT24=
PLAYORDER=
